  0
SECTION
  2
BLOCKS
  0
ENDSEC
  0
SECTION
  2
ENTITIES
  0
LINE
  8
0
 10
-21.35
 20
-13.5
 11
11.35
 21
-13.5
  0
LINE
  8
0
 10
11.35
 20
-13.5
 11
11.35
 21
-18.9456
  0
LINE
  8
0
 10
11.35
 20
-18.9456
 11
15
 21
-17.3205
  0
LINE
  8
0
 10
15
 20
-17.3205
 11
18.3826
 21
-14.8629
  0
LINE
  8
0
 10
18.3826
 20
-14.8629
 11
21.1803
 21
-11.7557
  0
LINE
  8
0
 10
21.1803
 20
-11.7557
 11
23.2709
 21
-8.13472
  0
LINE
  8
0
 10
23.2709
 20
-8.13472
 11
24.5629
 21
-4.15823
  0
LINE
  8
0
 10
24.5629
 20
-4.15823
 11
25
 21
0
  0
LINE
  8
0
 10
25
 20
0
 11
24.5629
 21
4.15823
  0
LINE
  8
0
 10
24.5629
 20
4.15823
 11
23.2709
 21
8.13472
  0
LINE
  8
0
 10
23.2709
 20
8.13472
 11
21.1803
 21
11.7557
  0
LINE
  8
0
 10
21.1803
 20
11.7557
 11
18.3826
 21
14.8629
  0
LINE
  8
0
 10
18.3826
 20
14.8629
 11
15
 21
17.3205
  0
LINE
  8
0
 10
15
 20
17.3205
 11
11.35
 21
18.9456
  0
LINE
  8
0
 10
11.35
 20
18.9456
 11
11.35
 21
13.5
  0
LINE
  8
0
 10
11.35
 20
13.5
 11
-21.35
 21
13.5
  0
LINE
  8
0
 10
-21.35
 20
13.5
 11
-21.35
 21
20
  0
LINE
  8
0
 10
-21.35
 20
20
 11
-25
 21
20
  0
LINE
  8
0
 10
-25
 20
20
 11
-25
 21
-20
  0
LINE
  8
0
 10
-25
 20
-20
 11
-21.35
 21
-20
  0
LINE
  8
0
 10
-21.35
 20
-20
 11
-21.35
 21
-13.5
  0
LINE
  8
0
 10
-1.47499
 20
10.134
 11
-1.78401
 21
10.4122
  0
LINE
  8
0
 10
-1.78401
 20
10.4122
 11
-1.95314
 21
10.7921
  0
LINE
  8
0
 10
-1.95314
 20
10.7921
 11
-1.95314
 21
11.2079
  0
LINE
  8
0
 10
-1.95314
 20
11.2079
 11
-1.78401
 21
11.5878
  0
LINE
  8
0
 10
-1.78401
 20
11.5878
 11
-1.47499
 21
11.866
  0
LINE
  8
0
 10
-1.47499
 20
11.866
 11
-1.07951
 21
11.9945
  0
LINE
  8
0
 10
-1.07951
 20
11.9945
 11
-0.66597
 21
11.951
  0
LINE
  8
0
 10
-0.66597
 20
11.951
 11
-0.305862
 21
11.7431
  0
LINE
  8
0
 10
-0.305862
 20
11.7431
 11
-0.0614471
 21
11.4067
  0
LINE
  8
0
 10
-0.0614471
 20
11.4067
 11
0.0249939
 21
11
  0
LINE
  8
0
 10
0.0249939
 20
11
 11
-0.0614471
 21
10.5933
  0
LINE
  8
0
 10
-0.0614471
 20
10.5933
 11
-0.305862
 21
10.2569
  0
LINE
  8
0
 10
-0.305862
 20
10.2569
 11
-0.66597
 21
10.0489
  0
LINE
  8
0
 10
-0.66597
 20
10.0489
 11
-1.07951
 21
10.0055
  0
LINE
  8
0
 10
-1.07951
 20
10.0055
 11
-1.47499
 21
10.134
  0
LINE
  8
0
 10
-9.52499
 20
10.134
 11
-9.83401
 21
10.4122
  0
LINE
  8
0
 10
-9.83401
 20
10.4122
 11
-10.0031
 21
10.7921
  0
LINE
  8
0
 10
-10.0031
 20
10.7921
 11
-10.0031
 21
11.2079
  0
LINE
  8
0
 10
-10.0031
 20
11.2079
 11
-9.83401
 21
11.5878
  0
LINE
  8
0
 10
-9.83401
 20
11.5878
 11
-9.52499
 21
11.866
  0
LINE
  8
0
 10
-9.52499
 20
11.866
 11
-9.12952
 21
11.9945
  0
LINE
  8
0
 10
-9.12952
 20
11.9945
 11
-8.71597
 21
11.951
  0
LINE
  8
0
 10
-8.71597
 20
11.951
 11
-8.35587
 21
11.7431
  0
LINE
  8
0
 10
-8.35587
 20
11.7431
 11
-8.11145
 21
11.4067
  0
LINE
  8
0
 10
-8.11145
 20
11.4067
 11
-8.02499
 21
11
  0
LINE
  8
0
 10
-8.02499
 20
11
 11
-8.11145
 21
10.5933
  0
LINE
  8
0
 10
-8.11145
 20
10.5933
 11
-8.35587
 21
10.2569
  0
LINE
  8
0
 10
-8.35587
 20
10.2569
 11
-8.71597
 21
10.0489
  0
LINE
  8
0
 10
-8.71597
 20
10.0489
 11
-9.12952
 21
10.0055
  0
LINE
  8
0
 10
-9.12952
 20
10.0055
 11
-9.52499
 21
10.134
  0
LINE
  8
0
 10
-1.47499
 20
-11.866
 11
-1.78401
 21
-11.5878
  0
LINE
  8
0
 10
-1.78401
 20
-11.5878
 11
-1.95314
 21
-11.2079
  0
LINE
  8
0
 10
-1.95314
 20
-11.2079
 11
-1.95314
 21
-10.7921
  0
LINE
  8
0
 10
-1.95314
 20
-10.7921
 11
-1.78401
 21
-10.4122
  0
LINE
  8
0
 10
-1.78401
 20
-10.4122
 11
-1.47499
 21
-10.134
  0
LINE
  8
0
 10
-1.47499
 20
-10.134
 11
-1.07951
 21
-10.0055
  0
LINE
  8
0
 10
-1.07951
 20
-10.0055
 11
-0.66597
 21
-10.0489
  0
LINE
  8
0
 10
-0.66597
 20
-10.0489
 11
-0.305862
 21
-10.2569
  0
LINE
  8
0
 10
-0.305862
 20
-10.2569
 11
-0.0614471
 21
-10.5933
  0
LINE
  8
0
 10
-0.0614471
 20
-10.5933
 11
0.0249939
 21
-11
  0
LINE
  8
0
 10
0.0249939
 20
-11
 11
-0.0614471
 21
-11.4067
  0
LINE
  8
0
 10
-0.0614471
 20
-11.4067
 11
-0.305862
 21
-11.7431
  0
LINE
  8
0
 10
-0.305862
 20
-11.7431
 11
-0.66597
 21
-11.951
  0
LINE
  8
0
 10
-0.66597
 20
-11.951
 11
-1.07951
 21
-11.9945
  0
LINE
  8
0
 10
-1.07951
 20
-11.9945
 11
-1.47499
 21
-11.866
  0
LINE
  8
0
 10
-9.52499
 20
-11.866
 11
-9.83401
 21
-11.5878
  0
LINE
  8
0
 10
-9.83401
 20
-11.5878
 11
-10.0031
 21
-11.2079
  0
LINE
  8
0
 10
-10.0031
 20
-11.2079
 11
-10.0031
 21
-10.7921
  0
LINE
  8
0
 10
-10.0031
 20
-10.7921
 11
-9.83401
 21
-10.4122
  0
LINE
  8
0
 10
-9.83401
 20
-10.4122
 11
-9.52499
 21
-10.134
  0
LINE
  8
0
 10
-9.52499
 20
-10.134
 11
-9.12952
 21
-10.0055
  0
LINE
  8
0
 10
-9.12952
 20
-10.0055
 11
-8.71597
 21
-10.0489
  0
LINE
  8
0
 10
-8.71597
 20
-10.0489
 11
-8.35587
 21
-10.2569
  0
LINE
  8
0
 10
-8.35587
 20
-10.2569
 11
-8.11145
 21
-10.5933
  0
LINE
  8
0
 10
-8.11145
 20
-10.5933
 11
-8.02499
 21
-11
  0
LINE
  8
0
 10
-8.02499
 20
-11
 11
-8.11145
 21
-11.4067
  0
LINE
  8
0
 10
-8.11145
 20
-11.4067
 11
-8.35587
 21
-11.7431
  0
LINE
  8
0
 10
-8.35587
 20
-11.7431
 11
-8.71597
 21
-11.951
  0
LINE
  8
0
 10
-8.71597
 20
-11.951
 11
-9.12952
 21
-11.9945
  0
LINE
  8
0
 10
-9.12952
 20
-11.9945
 11
-9.52499
 21
-11.866
  0
ENDSEC
  0
SECTION
  2
OBJECTS
  0
DICTIONARY
  0
ENDSEC
  0
EOF
